<?xml version="1.0" standalone="no"?>
<!DOCTYPE svg PUBLIC "-//W3C//DTD SVG 20010904//EN"
 "http://www.w3.org/TR/2001/REC-SVG-20010904/DTD/svg10.dtd">
<svg version="1.0" xmlns="http://www.w3.org/2000/svg"
 width="1080.000000pt" height="1350.000000pt" viewBox="164 78 754 1194"
 preserveAspectRatio="xMidYMid meet">

<g transform="translate(0.000000,1350.000000) scale(0.100000,-0.100000)"
fill="#1a6fe1" stroke="none">
<path d="M5634 11846 c-1 -228 -5 -350 -14 -391 -7 -33 -16 -85 -21 -115 -16
-106 -28 -162 -69 -305 -12 -42 -31 -97 -41 -117 -5 -10 -9 -27 -9 -37 0 -11
-4 -22 -9 -25 -5 -3 -12 -17 -15 -31 -17 -66 -154 -343 -222 -447 -13 -21 -24
-40 -24 -43 0 -7 -85 -131 -121 -176 -16 -20 -29 -41 -29 -47 0 -6 -3 -12 -7
-14 -5 -1 -28 -30 -52 -63 -25 -33 -47 -62 -50 -65 -4 -3 -19 -23 -36 -45 -16
-22 -34 -45 -40 -51 -5 -6 -26 -30 -45 -54 -50 -63 -119 -143 -138 -160 -10
-8 -32 -33 -51 -55 -45 -53 -122 -136 -305 -329 -83 -88 -194 -205 -246 -260
-52 -56 -113 -119 -135 -142 -22 -22 -55 -58 -74 -80 -27 -30 -149 -165 -226
-248 -6 -6 -21 -24 -34 -41 -12 -16 -39 -48 -60 -70 -42 -45 -181 -211 -226
-270 -16 -21 -38 -47 -47 -57 -10 -10 -18 -20 -18 -23 0 -3 -21 -32 -47 -64
-27 -32 -57 -71 -68 -87 -11 -15 -28 -36 -37 -46 -10 -10 -18 -20 -18 -23 0
-5 -99 -145 -110 -155 -5 -5 -96 -141 -115 -172 -17 -29 -74 -122 -88 -143 -6
-11 -14 -22 -17 -25 -3 -3 -11 -16 -18 -30 -6 -14 -27 -52 -46 -85 -19 -33
-45 -80 -58 -105 -13 -25 -25 -47 -28 -50 -6 -5 -146 -289 -173 -350 -8 -19
-29 -65 -46 -103 -17 -37 -31 -70 -31 -73 0 -3 -6 -20 -14 -37 -7 -18 -21 -50
-30 -72 -9 -22 -21 -48 -26 -57 -6 -10 -10 -25 -10 -33 0 -8 -4 -23 -9 -33
-23 -46 -41 -95 -41 -112 0 -10 -4 -22 -10 -25 -5 -3 -10 -15 -10 -25 0 -11
-6 -34 -14 -52 -8 -18 -20 -53 -26 -78 -7 -25 -18 -65 -25 -90 -8 -25 -18 -63
-23 -85 -6 -22 -17 -65 -26 -96 -9 -31 -16 -67 -16 -80 0 -14 -4 -29 -9 -35
-5 -5 -11 -27 -14 -49 -3 -22 -13 -80 -22 -130 -20 -109 -28 -170 -51 -390
-28 -267 -20 -713 16 -888 6 -26 10 -64 10 -84 0 -20 4 -50 9 -67 5 -17 17
-67 26 -111 21 -100 33 -149 51 -200 8 -23 14 -50 14 -61 0 -11 4 -24 8 -30 4
-5 16 -36 27 -69 10 -33 22 -64 27 -69 4 -6 8 -17 8 -26 0 -16 17 -59 41 -102
5 -10 9 -23 9 -29 0 -23 145 -320 193 -396 15 -24 27 -46 27 -49 0 -4 11 -22
25 -40 14 -18 25 -35 25 -39 0 -6 128 -187 139 -195 3 -3 19 -23 36 -45 46
-63 82 -102 205 -226 103 -103 155 -151 231 -214 40 -34 238 -175 245 -175 3
0 20 -10 37 -22 73 -52 282 -156 427 -213 25 -9 54 -21 65 -25 11 -5 29 -11
40 -13 11 -3 45 -13 75 -22 235 -71 577 -94 832 -57 64 10 120 21 124 25 4 4
18 7 31 7 23 0 156 40 223 67 19 8 44 18 55 22 117 47 370 194 421 245 8 8 36
32 61 53 53 43 163 152 163 162 0 3 13 20 28 36 36 38 123 159 148 205 10 19
22 37 25 40 9 8 109 218 109 230 0 6 4 18 9 28 11 20 34 90 49 147 6 22 16 60
22 85 47 174 47 582 0 775 -27 112 -32 132 -48 185 -9 30 -20 59 -24 64 -4 6
-8 18 -8 28 0 9 -12 43 -26 75 -15 32 -33 74 -41 93 -23 57 -94 193 -136 260
-28 45 -100 153 -107 160 -3 3 -25 32 -49 65 -25 33 -56 74 -70 91 -67 81
-108 129 -126 148 -11 12 -38 42 -59 66 -22 25 -93 100 -157 168 -65 68 -135
144 -156 169 -21 26 -57 67 -80 92 -24 25 -43 48 -43 52 0 4 -6 14 -13 21 -7
7 -36 45 -65 83 -29 39 -56 75 -60 80 -70 93 -262 448 -262 484 0 6 -4 19 -9
29 -4 9 -15 31 -23 47 -8 17 -27 71 -43 120 -15 50 -31 99 -36 110 -4 11 -10
34 -13 50 -3 17 -12 62 -21 100 -41 178 -61 471 -46 664 14 183 25 268 46 351
9 36 18 79 21 95 3 17 9 39 13 50 5 11 23 66 41 123 18 56 37 105 41 108 5 3
9 16 9 30 0 13 5 24 10 24 6 0 10 7 10 17 0 9 11 39 24 67 13 28 34 76 47 106
24 56 210 427 246 490 41 73 77 137 113 205 21 39 50 93 65 120 16 28 31 57
35 65 4 8 17 33 29 55 34 64 188 383 217 450 7 17 22 51 33 76 11 26 23 59 27
73 3 14 10 29 15 32 5 3 9 15 9 28 0 12 4 26 9 32 4 5 15 32 24 59 49 151 65
206 77 260 7 33 17 74 22 90 10 30 22 94 37 195 5 30 14 82 22 115 17 82 17
748 -1 820 -7 28 -16 77 -21 110 -11 76 -24 148 -39 205 -7 25 -16 61 -20 80
-5 19 -16 59 -24 89 -9 29 -16 62 -16 72 0 10 -4 21 -10 24 -5 3 -10 19 -10
34 0 15 -3 31 -7 35 -4 3 -16 35 -27 70 l-21 64 -1 -332z"/>
<path d="M6430 8411 c-14 -5 -43 -9 -66 -10 -23 -1 -54 -5 -70 -10 -16 -5 -56
-17 -89 -26 -74 -21 -79 -23 -190 -76 -169 -81 -336 -219 -436 -360 -49 -68
-136 -231 -156 -289 -61 -188 -82 -357 -63 -530 15 -145 42 -273 61 -294 5 -6
9 -18 9 -28 0 -32 86 -213 149 -313 115 -183 275 -365 481 -545 41 -36 97 -85
125 -110 82 -73 437 -428 480 -482 22 -27 50 -61 63 -76 75 -87 205 -278 273
-399 57 -102 99 -187 99 -200 0 -7 5 -13 10 -13 6 0 10 -7 10 -15 0 -8 7 -31
16 -52 9 -21 20 -47 24 -58 4 -11 15 -37 24 -58 9 -21 16 -46 16 -57 0 -10 4
-21 9 -24 5 -3 11 -18 14 -33 3 -16 13 -53 22 -83 9 -30 21 -75 26 -100 4 -25
15 -81 24 -125 16 -81 37 -335 37 -435 -1 -105 -22 -345 -37 -425 -9 -44 -20
-100 -25 -125 -4 -25 -16 -72 -25 -105 -9 -33 -19 -75 -22 -93 -3 -18 -9 -35
-14 -38 -5 -3 -9 -14 -9 -24 0 -11 -7 -36 -16 -57 -9 -21 -20 -47 -24 -58 -4
-11 -15 -37 -24 -58 -9 -21 -16 -44 -16 -52 0 -8 -4 -15 -10 -15 -5 0 -10 -6
-10 -14 0 -17 -32 -80 -42 -84 -5 -2 -8 -10 -8 -17 0 -16 -32 -79 -42 -83 -5
-2 -8 -10 -8 -18 0 -12 -44 -88 -60 -104 -3 -3 -14 -22 -24 -43 -11 -20 -23
-37 -28 -37 -4 0 -8 -6 -8 -13 0 -7 -11 -24 -25 -39 -14 -15 -25 -31 -25 -35
0 -5 -10 -19 -23 -33 -12 -14 -30 -35 -38 -47 -51 -74 -240 -271 -324 -338
-27 -22 -52 -42 -55 -45 -13 -14 -92 -72 -155 -115 -73 -49 -91 -60 -190 -115
-33 -18 -64 -36 -70 -40 -5 -4 -19 -10 -30 -13 -13 -3 -9 -5 12 -6 17 0 35 4
38 9 3 6 15 10 27 10 21 0 109 26 140 41 10 5 28 9 41 9 13 0 27 4 32 8 6 5
33 17 60 26 59 21 113 43 137 56 10 6 23 10 30 10 14 0 40 12 248 115 159 78
204 102 247 133 17 12 34 22 39 22 4 0 22 11 40 25 18 14 35 25 39 25 3 0 11
5 18 10 7 6 62 45 122 87 61 42 112 79 115 82 3 4 25 22 50 41 174 134 492
452 594 593 17 23 33 44 36 47 14 12 181 251 220 315 23 39 46 72 51 73 5 2 9
10 9 19 0 8 8 27 18 41 11 15 26 41 34 57 9 17 40 77 69 135 30 58 65 130 78
160 12 30 33 78 46 105 13 28 35 84 50 125 15 41 30 84 34 95 20 52 33 92 38
115 2 14 8 34 13 45 16 40 40 132 40 153 0 11 5 24 10 27 6 3 10 22 10 41 0
20 4 43 10 53 10 21 27 102 40 203 5 38 11 72 15 78 24 39 43 642 26 820 -29
295 -59 508 -81 564 -5 15 -10 40 -10 56 0 16 -4 32 -10 35 -5 3 -10 18 -10
32 0 25 -25 111 -41 145 -5 10 -9 26 -9 35 -1 21 -34 120 -44 130 -3 3 -6 15
-6 25 0 10 -4 26 -9 36 -21 42 -41 94 -41 107 0 9 -4 23 -10 33 -9 17 -14 29
-60 142 -47 116 -135 300 -191 400 -17 30 -42 75 -56 100 -14 25 -31 52 -39
61 -8 8 -14 19 -14 24 0 4 -11 23 -25 41 -14 18 -25 35 -25 39 0 3 -5 11 -10
18 -6 7 -45 62 -87 122 -42 61 -83 116 -89 123 -7 7 -30 34 -51 60 -21 25 -51
62 -68 82 -34 39 -203 208 -257 256 -51 46 -281 209 -317 225 -17 8 -31 17
-31 21 0 5 -4 8 -10 8 -5 0 -46 18 -92 40 -46 22 -91 40 -100 40 -9 0 -19 4
-22 9 -3 5 -18 11 -33 14 -16 3 -55 13 -88 22 -107 31 -403 54 -455 36z"/>
</g>
</svg>
